<?xml version="1.0" standalone="no"?>
<!DOCTYPE svg PUBLIC "-//W3C//DTD SVG 20010904//EN"
 "http://www.w3.org/TR/2001/REC-SVG-20010904/DTD/svg10.dtd">
<svg version="1.0" xmlns="http://www.w3.org/2000/svg"
 width="650.000000pt" height="650.000000pt" viewBox="0 0 650.000000 650.000000"
 preserveAspectRatio="xMidYMid meet">
<metadata>
Created by potrace 1.11, written by Peter Selinger 2001-2013
</metadata>
<g transform="translate(0.000000,650.000000) scale(0.100000,-0.100000)"
fill="#000000" stroke="none">
<path d="M6132 5122 c-43 -29 -103 -31 -342 -16 -610 40 -1237 -47 -1599 -222
-95 -46 -127 -68 -182 -123 -56 -56 -70 -77 -84 -126 -22 -73 -15 -129 25
-203 30 -57 134 -182 150 -182 5 0 4 14 -2 30 -5 17 -8 59 -6 93 13 212 285
360 863 472 44 8 177 25 295 36 218 21 399 22 855 3 123 -5 144 -3 174 13 75
40 68 68 -45 170 -76 68 -80 70 -102 55z"/>
<path d="M786 3878 c4 -7 33 -44 65 -83 97 -119 239 -247 363 -329 78 -52 479
-280 811 -461 354 -193 479 -270 590 -360 30 -25 55 -42 55 -37 0 16 -56 90
-114 150 -123 128 -278 233 -611 412 -120 65 -643 358 -782 438 -133 77 -214
135 -310 224 -61 57 -82 71 -67 46z"/>
<path d="M6122 2803 c106 -207 123 -269 122 -433 -2 -154 -24 -245 -93 -385
-210 -426 -748 -790 -1636 -1108 -792 -284 -1754 -470 -2845 -553 -100 -7
-160 9 -281 77 -222 125 -621 443 -1039 829 -85 79 -100 89 -85 60 26 -52 344
-364 545 -536 406 -347 622 -507 812 -601 86 -43 86 -43 198 -43 62 0 167 7
234 15 66 8 189 22 271 30 857 86 1699 269 2380 516 362 131 597 236 845 377
398 227 653 467 782 740 137 289 119 577 -53 829 -59 87 -179 228 -157 186z"/>
</g>
</svg>
